<svg id="Layer_1" data-name="Layer 1" xmlns="http://www.w3.org/2000/svg" viewBox="0 0 580.8 493.17"><defs><style>.cls-1{fill:#176082;}.cls-1,.cls-2,.cls-3,.cls-4{stroke:#231f20;stroke-miterlimit:10;}.cls-2{fill:#fec010;}.cls-3{fill:#e97132;}.cls-4{fill:#892556;}.cls-5{font-size:21px;}.cls-5,.cls-7{fill:#231f20;font-family:ArialMT, Arial;}.cls-6{letter-spacing:-0.07em;}.cls-7{font-size:16px;}</style></defs><rect class="cls-1" x="60.96" y="0.5" width="69.27" height="35.65"/><rect class="cls-2" x="209.09" y="0.5" width="69.27" height="35.65"/><rect class="cls-2" x="135.03" y="0.5" width="69.27" height="35.65"/><rect class="cls-3" x="357.23" y="0.5" width="69.27" height="35.65"/><rect class="cls-2" x="283.16" y="0.5" width="69.27" height="35.65"/><rect class="cls-3" x="431.3" y="0.5" width="69.27" height="35.65"/><rect class="cls-3" x="505.37" y="0.5" width="69.27" height="35.65"/><rect class="cls-1" x="60.96" y="52.67" width="69.27" height="35.65"/><rect class="cls-2" x="209.09" y="52.67" width="69.27" height="35.65"/><rect class="cls-1" x="135.03" y="52.67" width="69.27" height="35.65"/><rect class="cls-3" x="357.23" y="52.67" width="69.27" height="35.65"/><rect class="cls-2" x="283.16" y="52.67" width="69.27" height="35.65"/><rect class="cls-3" x="431.3" y="52.67" width="69.27" height="35.65"/><rect class="cls-3" x="505.37" y="52.67" width="69.27" height="35.65"/><rect class="cls-4" x="60.96" y="104.85" width="69.27" height="35.65"/><rect class="cls-2" x="209.09" y="104.85" width="69.27" height="35.65"/><rect class="cls-1" x="135.03" y="104.85" width="69.27" height="35.65"/><rect class="cls-3" x="357.23" y="104.85" width="69.27" height="35.65"/><rect class="cls-2" x="283.16" y="104.85" width="69.27" height="35.65"/><rect class="cls-3" x="431.3" y="104.85" width="69.27" height="35.65"/><rect class="cls-3" x="505.37" y="104.85" width="69.27" height="35.65"/><rect class="cls-1" x="60.96" y="157.02" width="69.27" height="35.65"/><rect class="cls-2" x="209.09" y="157.02" width="69.27" height="35.65"/><rect class="cls-2" x="135.03" y="157.02" width="69.27" height="35.65"/><rect class="cls-3" x="357.23" y="157.02" width="69.27" height="35.65"/><rect class="cls-2" x="283.16" y="157.02" width="69.27" height="35.65"/><rect class="cls-3" x="431.3" y="157.02" width="69.27" height="35.65"/><rect class="cls-3" x="505.37" y="157.02" width="69.27" height="35.65"/><rect class="cls-4" x="60.96" y="209.2" width="69.27" height="35.65"/><rect class="cls-2" x="209.09" y="209.2" width="69.27" height="35.65"/><rect class="cls-2" x="135.03" y="209.2" width="69.27" height="35.65"/><rect class="cls-3" x="357.23" y="209.2" width="69.27" height="35.65"/><rect class="cls-2" x="283.16" y="209.2" width="69.27" height="35.65"/><rect class="cls-3" x="431.3" y="209.2" width="69.27" height="35.65"/><rect class="cls-3" x="505.37" y="209.2" width="69.27" height="35.65"/><rect class="cls-1" x="60.96" y="261.37" width="69.27" height="35.65"/><rect class="cls-1" x="209.09" y="261.37" width="69.27" height="35.65"/><rect class="cls-1" x="135.03" y="261.37" width="69.27" height="35.65"/><rect class="cls-3" x="357.23" y="261.37" width="69.27" height="35.65"/><rect class="cls-2" x="283.16" y="261.37" width="69.27" height="35.65"/><rect class="cls-2" x="431.3" y="261.37" width="69.27" height="35.65"/><rect class="cls-3" x="505.37" y="261.37" width="69.27" height="35.65"/><rect class="cls-1" x="60.96" y="313.54" width="69.27" height="35.65"/><rect class="cls-1" x="209.09" y="313.54" width="69.27" height="35.65"/><rect class="cls-1" x="135.03" y="313.54" width="69.27" height="35.65"/><rect class="cls-1" x="357.23" y="313.54" width="69.27" height="35.65"/><rect class="cls-1" x="283.16" y="313.54" width="69.27" height="35.65"/><rect class="cls-1" x="431.3" y="313.54" width="69.27" height="35.65"/><rect class="cls-3" x="505.37" y="313.54" width="69.27" height="35.65"/><text class="cls-5" transform="translate(0 23.8)">2022</text><text class="cls-5" transform="translate(0 75.97)">2019</text><text class="cls-5" transform="translate(0 180.32)">20<tspan class="cls-6" x="23.36" y="0">1</tspan><tspan x="33.48" y="0">1</tspan></text><text class="cls-5" transform="translate(0 128.14)">2015</text><text class="cls-5" transform="translate(0 232.49)">2007</text><text class="cls-5" transform="translate(0 284.67)">2003</text><text class="cls-5" transform="translate(0 336.84)">1999</text><text class="cls-7" transform="translate(57.28 382.62) scale(1.03 1)">100x100m <tspan x="9.79" y="19.2">grid cell</tspan></text><text class="cls-7" transform="translate(149.14 382.62) scale(1.03 1)">100m <tspan x="-1.78" y="19.2">radius</tspan></text><text class="cls-7" transform="translate(223.21 382.62) scale(1.03 1)">200m <tspan x="-1.78" y="19.2">radius</tspan></text><text class="cls-7" transform="translate(297.27 382.62) scale(1.03 1)">400m <tspan x="-1.78" y="19.2">radius</tspan></text><text class="cls-7" transform="translate(371.34 382.62) scale(1.03 1)">800m <tspan x="-1.78" y="19.2">radius</tspan></text><text class="cls-7" transform="translate(440.85 382.62) scale(1.03 1)">1600m <tspan x="2.67" y="19.2">radius</tspan></text><text class="cls-7" transform="translate(514.92 382.62) scale(1.03 1)">3200m <tspan x="2.67" y="19.2">radius</tspan></text><rect class="cls-1" x="172.44" y="440.99" width="47.97" height="25.22"/><rect class="cls-2" x="252.67" y="440.99" width="49.33" height="25.22"/><rect class="cls-3" x="415.87" y="440.99" width="49.33" height="25.22"/><rect class="cls-4" x="334.27" y="440.99" width="49.33" height="25.22"/><text class="cls-7" transform="translate(163.59 486.74) scale(1.03 1)">Cluster 1</text><text class="cls-7" transform="translate(244.51 486.74) scale(1.03 1)">Cluster 2</text><text class="cls-7" transform="translate(325.43 486.74) scale(1.03 1)">Cluster 3</text><text class="cls-7" transform="translate(406.34 486.74) scale(1.03 1)">Cluster 4</text></svg>